<?xml version="1.0" encoding="utf-8"?>
<!-- Generator: Adobe Illustrator 22.1.0, SVG Export Plug-In . SVG Version: 6.00 Build 0)  -->
<svg version="1.1" id="Layer_1" xmlns="http://www.w3.org/2000/svg" xmlns:xlink="http://www.w3.org/1999/xlink" x="0px" y="0px"
	 viewBox="0 0 220 220" enable-background="new 0 0 220 220" xml:space="preserve">
<rect fill="#E41E2B" width="220" height="220"/>
<g>
	<path fill="#FFFFFF" d="M203.17,119.76c-0.52-0.56-0.52-1.44,0-2c0.58-0.49,1.42-0.49,2,0c0.52,0.56,0.52,1.44,0,2
		C204.6,120.27,203.74,120.27,203.17,119.76"/>
	<path fill="#FFFFFF" d="M197.8,117.57c0.49-0.29,0.9-0.71,1.17-1.22c0.56-1.11,0.56-2.43,0-3.54c-0.27-0.51-0.67-0.93-1.17-1.22
		c-1.06-0.59-2.34-0.59-3.4,0c-0.5,0.3-0.9,0.73-1.17,1.25c-0.56,1.11-0.56,2.43,0,3.54c0.27,0.5,0.68,0.93,1.17,1.22
		c1.06,0.57,2.34,0.57,3.4,0 M193.2,119.36c-0.84-0.44-1.53-1.11-2-1.93c-0.96-1.76-0.96-3.88,0-5.64c0.47-0.82,1.17-1.49,2-1.94
		c1.82-0.92,3.98-0.92,5.8,0c0.83,0.45,1.53,1.12,2,1.94c0.96,1.76,0.96,3.88,0,5.64c-0.47,0.82-1.16,1.49-2,1.93
		C197.18,120.29,195.02,120.29,193.2,119.36"/>
	<path fill="#FFFFFF" d="M182.03,119.32c-2.63-1.4-3.62-4.67-2.21-7.29c0.03-0.06,0.07-0.12,0.1-0.19c0.5-0.85,1.23-1.55,2.11-2
		c0.93-0.48,1.96-0.72,3-0.71c0.82,0,1.63,0.14,2.39,0.43c0.71,0.27,1.34,0.71,1.84,1.28l-1.39,1.55c-0.36-0.4-0.8-0.71-1.29-0.93
		c-0.46-0.2-0.96-0.3-1.46-0.3c-0.65-0.01-1.29,0.15-1.86,0.46c-0.54,0.29-0.99,0.71-1.31,1.22c-0.31,0.53-0.48,1.13-0.47,1.75
		c-0.01,0.62,0.15,1.22,0.47,1.75c0.31,0.53,0.77,0.96,1.31,1.24c0.58,0.3,1.23,0.46,1.88,0.45c1.06,0.01,2.08-0.42,2.81-1.19
		l1.38,1.51c-0.49,0.57-1.12,1-1.83,1.25c-0.77,0.28-1.59,0.43-2.41,0.42c-1.06,0.02-2.11-0.23-3.06-0.71"/>
	<path fill="#FFFFFF" d="M165.64,95.96c-0.94,0.92-1.79,1.92-2.53,3v0.21c3.87,0.87,7.5-0.4,10.67-2.18
		c3.14-1.85,5.78-4.45,7.67-7.56C176.96,93.58,171.95,96.58,165.64,95.96"/>
	<path fill="#FFFFFF" d="M81.12,124.5l-12.65,3.21c-2.19,0.53-4.45,0.7-6.69,0.52c-2.62-0.26-4.92-1.86-6.07-4.22
		c-1.77-4.84,0.28-10,2.31-14.18c3.35-6.48,7.98-12.21,13.62-16.84c1.81-1.15,3.76-2.54,6.06-2c0.38,0.22,0.67,0.58,0.8,1
		c0.1,0.47-0.02,0.95-0.31,1.33c-0.74-0.12-1.49,0.14-2,0.69c-0.71,0.66-1.06,1.62-0.94,2.58c0.15,0.37,0.51,0.62,0.91,0.63
		c0.83-0.16,1.56-0.66,2-1.39c0.94-1.43,1.85-3.49,0.84-5.16c-0.42-0.65-1.09-1.1-1.85-1.26c-3.38-0.31-6.27,1.15-9,2.69
		c-7.26,4.64-13.03,11.27-16.63,19.1c-2,4.7-3.34,11.92,0.73,16.14c3.17,3.45,8.75,3.13,13,2.09l11-2.72
		c3.69-0.73,8.47-1.18,11.78,0.7c1.24,0.71,2.32,1.67,3.17,2.82c0.67-0.82,1.5-1.5,2.44-2c4.43-1.54,8.89,0.31,12.69,2.06
		c-2.42-2.41-5.29-4.33-8.44-5.65c-5-2.13-11.53-1.36-16.73-0.11"/>
	<path fill="#FFFFFF" d="M162.44,123.14c-0.87,1.25-2,2.82-3.45,3.3c-0.4,0.06-0.79-0.13-1-0.48c-0.42-1.89,0.73-3.45,1.39-5.06
		c2-3.34,4.05-7,7.46-9.48c0.6-0.31,1.61-0.45,1.92,0.35v0.38L162.44,123.14z M143.44,117.91c-1.22-0.19-2.27-0.97-2.8-2.08
		c-0.51-1.18-0.29-2.55,0.56-3.52c0.91-1.08,2.72-2.33,3.8-0.84c0.77,2.3-0.49,4.5-1.5,6.42 M141.44,121.62
		c-1.12,1.81-2.61,3.36-4.39,4.54c-0.49,0.24-1.06,0.26-1.57,0.07c-0.4-0.19-0.68-0.56-0.76-1c-0.18-3.35,1.77-6.06,3.52-8.78
		l0.87-1.05c0.51,1.01,1.25,1.9,2.16,2.58l1.71,0.8c-0.37,1.01-0.89,1.96-1.54,2.82 M172.2,119.83c-1.64,2.37-3.31,5.09-5.92,6.65
		c-0.31,0.16-0.69,0.06-0.88-0.24c-0.31-0.59,0.11-1.18,0.25-1.71l6-10.8l2.23-4l-0.06-0.1h-3.18c-0.66,0.1-0.76,0.94-1.18,1.35
		h-0.14c-0.26-0.4-0.6-0.74-1-1c-1.17-0.53-2.54-0.44-3.63,0.24c-5.36,3.56-8.29,9.27-11.78,14.22c-0.9,0.94-1.92,2.72-3.38,2.16
		c-0.45-0.34-0.45-0.83-0.52-1.36c0.36-2.74,1.17-5.4,2.4-7.87c2.58-1.91,5-4.02,7.23-6.33c3.56-3.43,6.79-7.18,9.66-11.21
		c-0.26-0.11-0.56-0.09-0.8,0.07c-4.33,5.78-9.37,10.99-15,15.52h-0.21c1.67-3.53,3.58-6.94,5.72-10.21
		c3.28-4.92,6.66-10.08,11.57-14c0.66-0.38,1.5-1.22,2.27-0.59c0.18,0.58,0.13,1.2-0.14,1.74c-0.28,1-1,1.88-1.22,2.89
		c0.31,0,0.66,0,0.8-0.31l1.11-2.37c0.52-0.93,0.52-2.07,0-3c-0.37-0.27-0.83-0.4-1.29-0.35c-1.65,0.4-3.18,1.16-4.5,2.23
		c-8.97,7.28-14.97,16.59-19.43,26.14c-0.83,0.42-1.76,0.59-2.69,0.49c0.7-1.81,1.64-3.55,1.71-5.61c0.16-1.12-0.36-2.24-1.33-2.83
		c-1.36-0.55-2.71,0-3.9,0.56c-5.33,3-8.85,8.47-10.66,13.84c-0.39,1.74-0.88,4.15,0.66,5.47c1.08,0.61,2.4,0.61,3.48,0
		c4.32-2.06,7.29-6.66,9.48-10.56c0.91-0.07,1.78-0.18,2.65-0.32l0.11,0.07l-1.16,3.42c-0.41,2.26-1.84,5.23,0.11,7.21
		c0.56,0.46,1.29,0.64,2,0.5c2.37-0.59,4.05-2.93,5.83-4.67c-0.22,0.89-0.32,1.8-0.29,2.72c0.04,0.87,0.57,1.64,1.36,2
		c2.86,0.7,4.71-2,6.7-3.8l0,0c-0.31,1-0.69,2.54,0.18,3.45c0.72,0.52,1.68,0.59,2.47,0.17c4-2,6.73-6.2,9.06-9.72v-0.35
		c-0.25-0.08-0.53-0.03-0.73,0.14"/>
	<path fill="#FFFFFF" d="M135.98,104.03c-0.62,0.39-1.37,0.53-2.09,0.39c-0.35-0.17-0.6-0.49-0.69-0.87c0-2.62,1.6-4.64,3.06-6.66
		c1.68-2.13,3.81-3.86,6.24-5.06c0.35,0,0.39,0.48,0.42,0.8c-0.5,4.65-3.04,8.84-6.94,11.43 M153.06,90.01c-3-1.32-7-0.79-9.89,0.39
		c-0.97-0.94-2.32-1.39-3.66-1.22c-4.05,0.42-7.43,2.41-10.74,4.64c-8.09,5.98-14.18,14.28-17.46,23.8
		c-1.08,3.66-1.57,8.79,1.91,11.44c1.92,1.46,5,1.18,7.08,0.24c5.09-2.41,9.1-7.71,11-12.72c0.66-1.89,1.25-4.78-0.28-6.48
		c-1-0.91-2.62-0.74-3.73-0.29c-4.71,2-7,6.91-7.71,11.58l0.07,0.17c1.32-1.55,2.99-2.76,4.88-3.52c0.31-1.58,0.92-3.09,1.78-4.46
		c0.94-1.22,2.16-2.86,3.87-2.48c0.51,0.26,0.82,0.79,0.8,1.36c0.14,4.29-2.13,7.81-4.88,11c-2.16,2.06-4.6,4.56-7.77,3.62
		c-1.19-0.56-2.06-1.64-2.34-2.93c-0.59-4.63,1.36-8.71,3.14-12.58c3.87-7.28,9.69-14.57,16.94-19.38c1.74-0.8,3.42-2.16,5.61-1.6
		c0.14,0,0.39,0.14,0.39,0.35c-3.11,1.8-5.78,4.28-7.81,7.25c-0.94,1.67-2,3.31-1.92,5.4c0.08,0.73,0.53,1.37,1.18,1.71
		c1.57,0.49,2.9-0.49,4.12-1.26c3.4-2.78,5.61-6.76,6.17-11.12c0.14-0.55-0.25-1.11,0-1.57c1.48-0.32,3.02-0.2,4.43,0.35
		c3.87,1.61,7.24,4.11,11,6c0.9-0.8,1.75-1.79,2.66-2.7l0.1-0.31c-2.85-1.76-5.82-3.32-8.89-4.66"/>
	<path fill="#FFFFFF" d="M100.75,110.72c-1.3,1.92-2.52,4.22-4.64,5.37c-0.31,0.07-0.83,0.18-1.08-0.1
		c-0.49-0.38-0.38-1.12-0.28-1.64c0.91-3.35,3.1-6.17,5.13-9.06c1.39-1.67,2.89-3.87,5-4.43c0.41-0.09,0.82,0.11,1,0.49v0.42
		L100.75,110.72z M77.53,107.31c-1.25,0.01-2.42-0.62-3.1-1.67c-0.42-1.12-0.2-2.38,0.59-3.28c0.94-1,2.41-2.13,3.7-1.12
		c0.76,1.15,0.21,2.62-0.07,3.8C78.39,105.85,78.01,106.62,77.53,107.31 M72.53,114.73c-0.94,0.81-1.88,1.71-3.17,1.43
		c-0.49-0.07-0.73-0.62-0.91-1c-0.11-2.93,1.6-5.48,3.1-7.92l1.4-1.88c0.38,0.28,0.45,0.77,0.8,1.12c0.87,0.95,2.01,1.61,3.27,1.88
		c-1.13,2.37-2.65,4.54-4.49,6.41 M110.7,100.11l0.21-0.56c-1.17-0.14-2.36-0.14-3.53,0l-0.74,1.08c-0.42-0.35-0.81-0.91-1.36-1.08
		c-1.6-0.35-3.27,0.09-4.5,1.18c-5.4,4-8,9.94-12.86,14.4c-1.39,1.11-3.1,2.65-4.92,1.64c-0.94-0.77-0.9-2.1-0.73-3.21
		c1.37-4.46,3.94-8.47,7.43-11.57c0.94-0.59,1.91-1.5,3.13-1c0.49,0.28,0.73,0.84,0.6,1.39c0.07,0.84-0.77,0.35-1.22,0.53
		c-1.01,0.39-1.76,1.25-2,2.3c-0.13,0.44,0.02,0.91,0.39,1.18c0.69,0.2,1.44-0.04,1.88-0.62c1.26-1.4,2.26-3.31,1.46-5.13l-0.55-0.7
		c-2.41-1.49-5.06,0.14-7,1.64c-2.58,2-4.52,5.3-7.73,5.65c0.67-1.55,1.13-3.18,1.36-4.85c0.16-1.08-0.33-2.16-1.26-2.75
		c-1.28-0.41-2.68-0.25-3.83,0.45c-4.68,2.76-8.41,7.66-10.4,12.43c-0.59,2.06-1.53,4.57-0.14,6.56c0.8,0.77,1.96,1.01,3,0.62
		c4.91-1.81,8.26-7.11,10.7-11.36c0.94-0.1,1.81-0.52,2.69-0.63c-1.42,2.12-2.41,4.5-2.9,7c-0.37,1.69,0.23,3.44,1.57,4.53
		c3.21,1.47,6.06-0.87,8.43-3c1-0.87,2-2,2.93-2.79c-0.44,1.18-0.74,2.41-0.9,3.66c-0.08,1.05,0.48,2.04,1.42,2.51
		c2.79,0.56,4.61-1.88,6.56-3.59l0.07,0.07c-0.28,1-0.7,2.48,0.27,3.28c0.46,0.33,1.02,0.46,1.58,0.38
		c3.65-1.08,6.23-4.81,8.57-7.74c0.62-0.76,1.12-1.61,1.5-2.51c-0.21,0-0.45-0.13-0.63,0c-1.78,2.24-3.35,5-5.92,6.45
		c-0.32,0.21-0.75,0.15-1-0.14c-0.16-0.45-0.13-0.94,0.1-1.36L110.7,100.11z"/>
	<path fill="#FFFFFF" d="M116.01,102.6l0.25-0.17c0.62-0.96,1.17-1.96,1.64-3l-2.06-0.11c-0.45,0.11-1-0.1-1.46,0.18
		c-0.63,0.95-1.18,1.96-1.64,3c1.09,0.11,2.18,0.14,3.27,0.07"/>
	<polygon fill="#FFFFFF" points="43.53,119.68 35.68,119.68 35.68,109.47 43.38,109.47 43.1,111.42 37.91,111.42 37.91,113.42 
		41.27,113.42 41.27,115.39 37.91,115.39 37.91,117.74 43.24,117.74 	"/>
	<polygon fill="#FFFFFF" points="33.26,109.47 33.26,119.68 31.03,119.68 31.03,115.15 26.49,115.15 26.49,119.68 24.26,119.68 
		24.26,109.47 26.49,109.47 26.49,113.17 31.03,113.17 31.03,109.47 	"/>
	<polygon fill="#FFFFFF" points="22.37,111.47 19.58,111.47 19.58,119.68 17.36,119.68 17.36,111.47 14.57,111.47 14.57,109.47 
		22.37,109.47 	"/>
</g>
</svg>
