<?xml version="1.0" encoding="utf-8"?>
<!-- Generator: Adobe Illustrator 22.1.0, SVG Export Plug-In . SVG Version: 6.00 Build 0)  -->
<svg version="1.1" id="Layer_1" xmlns="http://www.w3.org/2000/svg" xmlns:xlink="http://www.w3.org/1999/xlink" x="0px" y="0px"
	 viewBox="0 0 210 210" enable-background="new 0 0 210 210" xml:space="preserve">
<g>
	<path d="M15.592,113.23v3.718h-5.381v18.705H5.381v-18.705H0v-3.718H15.592z"/>
	<path d="M25.881,135.653v-10.834c0-1.402-0.26-2.492-1.721-2.492c-1.462,0-1.722,1.09-1.722,2.492v10.834H17.94V113.23h4.498v8.288
		h0.064c0.91-1.402,2.143-1.9,3.857-1.9c2.137,0,4.02,1.246,4.02,3.426v12.61H25.881z"/>
	<path d="M46.303,128.493c0.16-5.04-0.511-8.875-6.598-8.875c-5.93,0-6.563,3.679-6.563,7.979c0,4.953,0.761,8.39,6.563,8.39
		c2.132,0,3.726-0.556,4.779-1.512c1.085-0.956,1.659-2.364,1.723-4.095h-4.564c0,1.321-0.323,2.83-1.938,2.83
		c-2.001,0-2.065-2.83-2.065-4.717H46.303z M37.64,126.051c0-1.346-0.033-3.724,2.065-3.724c2.163,0,2.1,2.19,2.1,3.724H37.64z"/>
	<path d="M60.51,135.653l1.314-4.995h6.594l1.28,4.995h5.09l-6.275-22.424h-6.371l-6.402,22.424H60.51z M67.392,127.217h-4.609
		l2.209-9.676h0.064L67.392,127.217z"/>
	<path d="M81.406,119.946v2.012h0.064c0.833-1.809,2.371-2.34,4.196-2.34l-0.003,3.936c-3.972-0.249-4.036,1.991-4.036,3.547v8.552
		h-4.498v-15.707H81.406z"/>
	<path d="M86.771,119.951h1.826v-2.487l4.498-1.958v4.445h2.339v2.709h-2.339v8.419c0,1.186-0.031,1.965,1.441,1.965
		c0.289,0,0.578,0,0.802-0.062v2.683c-0.61,0.063-1.25,0.155-2.339,0.155c-3.893,0-4.403-2.497-4.403-3.46v-9.699h-1.826V119.951z"
		/>
	<path d="M104.515,135.653h4.831V113.23h-4.831V135.653z"/>
	<path d="M117.054,121.518h0.064c0.91-1.402,2.143-1.9,3.856-1.9c2.138,0,4.021,1.246,4.021,3.431v12.604h-4.498v-10.83
		c0-1.4-0.26-2.491-1.722-2.491c-1.462,0-1.721,1.091-1.721,2.491v10.83h-4.498v-15.708h4.498V121.518z"/>
	<path d="M132.118,130.658c-0.031,0.713,0,1.394,0.224,1.868c0.255,0.497,0.734,0.745,1.626,0.745c0.894,0,1.659-0.559,1.659-1.615
		c0-3.326-7.941-2.58-7.941-7.624c0-3.388,3.469-4.415,6.374-4.415c3.073,0,5.867,1.431,5.61,4.819h-4.432
		c0-1.087-0.127-1.742-0.448-2.04c-0.288-0.279-0.673-0.342-1.14-0.342c-0.99,0-1.533,0.623-1.533,1.679
		c0,2.487,7.941,2.361,7.941,7.483c0,2.725-2.312,4.77-6.059,4.77c-3.938,0-6.57-0.961-6.315-5.328L132.118,130.658z"/>
	<path d="M141.767,119.951h1.826v-2.487l4.498-1.958v4.445h2.338v2.709h-2.338v8.419c0,1.186-0.033,1.965,1.44,1.965
		c0.289,0,0.577,0,0.802-0.062v2.683c-0.61,0.063-1.25,0.155-2.339,0.155c-3.891,0-4.401-2.497-4.401-3.46v-9.699h-1.826V119.951z"
		/>
	<path d="M153.526,116.671h4.498v-3.441h-4.498V116.671z M153.526,135.653h4.498v-15.707h-4.498V135.653z"/>
	<path d="M160.535,119.951h1.826v-2.487l4.498-1.958v4.445h2.339v2.709h-2.339v8.419c0,1.186-0.031,1.965,1.442,1.965
		c0.288,0,0.577,0,0.801-0.062v2.683c-0.608,0.063-1.248,0.155-2.338,0.155c-3.893,0-4.403-2.497-4.403-3.46v-9.699h-1.826V119.951z
		"/>
	<path d="M179.91,134.082h-0.064c-0.91,1.401-2.143,1.9-3.856,1.9c-2.138,0-4.021-1.246-4.021-3.432v-12.604h4.498v10.894
		c0,1.4,0.26,2.427,1.722,2.427c1.462,0,1.721-1.027,1.721-2.427v-10.894h4.498v12.604c0,1.027,0.065,2.081,0.162,3.104h-4.659
		L179.91,134.082z"/>
	<path d="M186.48,119.951h1.826v-2.487l4.498-1.958v4.445h2.338v2.709h-2.338v8.419c0,1.186-0.033,1.965,1.44,1.965
		c0.289,0,0.578,0,0.802-0.062v2.683c-0.61,0.063-1.25,0.155-2.338,0.155c-3.893,0-4.403-2.497-4.403-3.46v-9.699h-1.826V119.951z"
		/>
	<path d="M209.974,128.493c0.16-5.04-0.51-8.875-6.597-8.875c-5.932,0-6.564,3.679-6.564,7.979c0,4.953,0.76,8.39,6.564,8.39
		c2.13,0,3.726-0.556,4.778-1.512c1.085-0.956,1.659-2.364,1.724-4.095h-4.565c0,1.321-0.323,2.83-1.937,2.83
		c-2.003,0-2.067-2.83-2.067-4.717H209.974z M201.31,126.051c0-1.346-0.031-3.724,2.067-3.724c2.163,0,2.099,2.19,2.099,3.724
		H201.31z"/>
	<path d="M44.681,163.978c5.815,0,6.58-3.434,6.58-8.39c0-4.329-0.637-7.984-6.58-7.984c-5.941,0-6.58,3.654-6.58,7.984
		C38.101,160.544,38.867,163.978,44.681,163.978 M44.681,161.202c-1.666,0-2.083-1.035-2.083-5.866c0-3.294,0.162-4.957,2.083-4.957
		c1.923,0,2.083,1.663,2.083,4.957C46.764,160.167,46.347,161.202,44.681,161.202"/>
	<path d="M61.755,143.936c-1.826-0.125-2.209,0.555-2.209,2.127v1.88h2.114v2.709h-2.114v12.993h-4.498v-12.993H53.03v-2.709h2.049
		c-0.031-4.476-0.416-6.883,5.074-6.883c0.546,0,1.058,0.031,1.602,0.062V143.936z"/>
	<path d="M74.696,163.645l1.312-4.996h6.594l1.281,4.996h5.089l-6.275-22.425h-6.37l-6.403,22.425H74.696z M81.578,155.207h-4.61
		l2.208-9.675h0.064L81.578,155.207z"/>
	<path d="M89.329,147.942h1.827v-2.487l4.497-1.958v4.445h2.339v2.71h-2.339v8.419c0,1.186-0.031,1.964,1.442,1.964
		c0.288,0,0.577,0,0.801-0.062v2.684c-0.608,0.063-1.25,0.155-2.338,0.155c-3.892,0-4.402-2.498-4.402-3.461v-9.699h-1.827V147.942z
		"/>
	<path d="M100.769,163.645h4.498v-22.425h-4.498V163.645z"/>
	<path d="M121.167,152.876c0-2.892-0.737-5.272-6.476-5.272c-1.722,0-3.199,0.279-4.226,1.021c-1.06,0.71-1.669,1.924-1.669,3.842
		h4.43c0-1.258,0.129-2.422,1.693-2.422c1.626,0,1.817,0.975,1.817,2.329v1.224c-4.186-0.061-8.328,0.156-8.328,5.351
		c0,2.75,1.155,5.024,4.301,5.024c1.964,0,3.284-0.779,4.251-2.398h0.064l0.193,2.07h4.182c-0.098-0.961-0.226-1.953-0.226-2.916
		L121.167,152.876z M116.735,156.04c0,1.742,0.418,5.223-2.235,5.223c-1.47,0-1.662-1.368-1.662-2.486
		C112.837,155.948,114.499,156.134,116.735,156.04z"/>
	<path d="M129.477,149.509h0.066c0.91-1.402,2.143-1.9,3.856-1.9c2.138,0,4.02,1.246,4.02,3.431v12.604h-4.498v-10.831
		c0-1.4-0.26-2.491-1.722-2.491c-1.461,0-1.721,1.091-1.721,2.491v10.831h-4.498v-15.708h4.498V149.509z"/>
	<path d="M139.488,147.942h1.826v-2.487l4.498-1.958v4.445h2.339v2.71h-2.339v8.419c0,1.186-0.031,1.964,1.442,1.964
		c0.288,0,0.577,0,0.801-0.062v2.684c-0.608,0.063-1.248,0.155-2.338,0.155c-3.891,0-4.403-2.498-4.403-3.461v-9.699h-1.826V147.942
		z"/>
	<path d="M162.806,152.876c0-2.892-0.739-5.272-6.476-5.272c-1.722,0-3.199,0.279-4.227,1.021c-1.058,0.71-1.669,1.924-1.669,3.842
		h4.432c0-1.258,0.129-2.422,1.691-2.422c1.628,0,1.819,0.975,1.819,2.329v1.224c-4.186-0.061-8.33,0.156-8.33,5.351
		c0,2.75,1.155,5.024,4.303,5.024c1.963,0,3.284-0.779,4.249-2.398h0.064l0.193,2.07h4.182c-0.096-0.961-0.224-1.953-0.224-2.916
		L162.806,152.876z M158.375,156.04c0,1.742,0.418,5.223-2.237,5.223c-1.468,0-1.661-1.368-1.661-2.486
		C154.477,155.948,156.137,156.134,158.375,156.04z"/>
	<path d="M167.806,151.293h0.43c0.382,0,0.498-0.352,0.498-0.625c0-0.401-0.195-0.557-0.498-0.557h-0.43V151.293z M167.806,153.639
		h-0.958v-4.231h1.77c0.654,0,1.074,0.391,1.074,1.114c0,0.537-0.224,0.938-0.85,1.036v0.019c0.206,0.01,0.832,0.059,0.832,0.821
		c0,0.274,0.019,1.065,0.108,1.242h-0.939c-0.127-0.255-0.127-0.537-0.127-0.821c0-0.498,0.078-0.928-0.665-0.928h-0.244V153.639z
		 M171.207,151.538c0-1.631-1.329-2.951-2.941-2.951c-1.642,0-2.962,1.32-2.962,2.951s1.32,2.971,2.962,2.971
		C169.878,154.508,171.207,153.169,171.207,151.538z M171.893,151.538c0,2.023-1.614,3.654-3.627,3.654
		c-2.024,0-3.646-1.631-3.646-3.654c0-2.022,1.622-3.634,3.646-3.634C170.279,147.904,171.893,149.515,171.893,151.538
		L171.893,151.538z"/>
</g>
<path fill="#EE3124" d="M84.188,79.748c0.259-0.6,3.495-8.572,5.072-12.145c1.634-3.698,2.362-3.259,2.362-3.259l4.267,10.333
	C89.83,76.812,86.132,78.558,84.188,79.748 M141.024,102.208c0,0-0.02-29.745-0.014-30.358c0.007-0.612-0.594-0.972-1.19-0.612
	c-2.361,1.802-13.743,4.652-14.61,4.797c-0.862,0.147-0.693,1.709-0.693,1.709v21.919c0,0-0.033,0.9-0.753,0.948
	c-0.564,0.024-0.803-0.685-0.887-0.883c-0.165-0.389-10.726-24.542-10.726-24.542c4.123-1.101,20.648-1.571,28.676-9.236
	c1.75-1.663,2.804-3.798,2.804-6.127c0-5.304-5.454-9.602-12.186-9.602c-6.729,0-12.183,4.298-12.183,9.602
	c0,3.072,1.837,5.801,4.687,7.559c1.689,1.629-4.366,2.437-13.64,3.59L99.392,46h-1.198c-2.066,3.873-6.555,5.339-6.555,5.339
	s-12.531,27.9-18.274,42.091c-5.325,13.16-9.935,12.69-9.935,12.69v1.003h24.292v-1.054c-1.057-0.134-9.644-1.483-10.223-8.089
	c-0.618-7.003,8.323-15.229,19.93-19.077l0.025-0.004c3.556,8.247,9.25,21.477,9.25,21.477s2.482,4.879-4.06,5.687v1.059h43.901
	l0.02-1.003C141.033,106.021,141.024,102.208,141.024,102.208"/>
</svg>
