<?xml version="1.0" encoding="utf-8"?>
<!-- Generator: Adobe Illustrator 22.1.0, SVG Export Plug-In . SVG Version: 6.00 Build 0)  -->
<svg version="1.1" id="Layer_1" xmlns="http://www.w3.org/2000/svg" xmlns:xlink="http://www.w3.org/1999/xlink" x="0px" y="0px"
	 viewBox="0 0 180 180" enable-background="new 0 0 180 180" xml:space="preserve">
<rect width="180" height="180"/>
<path fill="#F03026" d="M156.4,65.8c-3.8-3.7-9.1-6-15.2-6c-6.1,0-11.5,2.3-15.3,6.1c-2.354,2.354-4.129,5.247-5.141,8.462
	c-0.974-3.177-2.684-6.012-5.059-8.262c-3.8-3.6-9.1-5.7-15.3-5.7H84.5v23.982c-1.06-2.214-2.897-3.761-5.2-4.882
	c2.2-1.7,4-4.3,4-8.1v-0.1c0-3.3-1.3-6.1-3.7-7.9c-2.4-1.9-5.8-2.9-9.8-2.9H51v23.735c-1.048-2.134-2.849-3.64-5.1-4.735
	c2.2-1.7,4-4.3,4-8.1v-0.1c0-3.3-1.3-6.1-3.7-7.9c-2.4-1.9-5.8-2.9-9.8-2.9H17.6v40.2h19.2c4.4,0,8.2-0.9,10.9-2.8
	c1.445-1.017,2.562-2.357,3.3-3.943v6.742h19.2c4.4,0,8.2-0.9,11-2.8c1.445-1.017,2.562-2.357,3.3-3.943v6.642h15.9
	c6.2,0,11.6-2.2,15.3-5.8c2.298-2.177,3.999-4.909,4.994-7.962c0.978,3.245,2.729,6.147,5.106,8.462c3.8,3.7,9.1,6,15.2,6
	c6.1,0,11.5-2.3,15.3-6.1c3.8-3.8,6.1-9,6.1-14.7v-0.1C162.4,74.7,160.2,69.5,156.4,65.8z M27.6,69.6H35c1.7,0,2.9,0.3,3.6,0.9
	c0.7,0.5,1,1.1,1,2.2v0.1h0.1c0,1.2-0.4,1.8-1.2,2.3s-2.2,0.8-4,0.8h-6.9V69.6z M41.7,88.1c0,1.2-0.4,1.8-1.2,2.4
	c-0.8,0.5-2.1,0.9-3.9,0.9h-9.1v-6.6h0.1h8.8c2.1,0,3.4,0.4,4.2,0.9c0.8,0.6,1.1,1.2,1.1,2.3V88.1z M61,69.6h7.4
	c1.7,0,2.9,0.3,3.6,0.9c0.7,0.5,1,1.1,1,2.2v0.1h0.1c0,1.2-0.4,1.8-1.2,2.3c-0.8,0.5-2.2,0.8-4,0.8H61V69.6z M75.3,88.1
	c0,1.2-0.4,1.8-1.2,2.4c-0.8,0.5-2.1,0.9-3.9,0.9h-9.1v-6.6h8.8c2.1,0,3.4,0.4,4.2,0.9c0.8,0.6,1.1,1.2,1.2,2.3V88.1z M111,80.6
	c-0.1,6.4-4.2,10.5-10.7,10.5h-5.6V69.9h5.6c6.5,0,10.6,4.2,10.7,10.6V80.6z M151.8,80.6c0,6.1-4.3,11-10.6,11s-10.7-5-10.7-11.1
	v-0.1c0-6.1,4.3-11,10.6-11c6.3,0,10.7,5,10.7,11.1V80.6z"/>
<path fill="#FFFFFF" d="M48,107.8l-4.7,10.9h2.4l1-2.4h4.6l1,2.4h2.5l-4.6-10.9H48z M47.7,114.2l1.4-3.5l1.4,3.5H47.7z M57.4,107.9
	h8.9v2.2H63v8.6h-2.4v-8.6h-3.2V107.9z M73.7,116.5H79v2.2h-7.8v-10.8h0.1h2.4V116.5z M87.6,107.8L83,118.7h2.3l1-2.4h4.6l1,2.4h2.5
	l-4.6-10.9H87.6z M87.3,114.2l1.4-3.5l1.4,3.5H87.3z M106.4,107.9h2.3v10.8h-2l-5.2-6.9v6.9h-2.3v-10.8h2.1l5.1,6.6V107.9z
	 M113.6,107.9h8.9v2.2h-3.3v8.6h-2.4v-8.6h-3.2V107.9z M132,107.8h-2.2l-4.7,10.9h2.4l1-2.4h4.6l1,2.4h2.5L132,107.8z M129.5,114.2
	l1.4-3.5l1.4,3.5H129.5z"/>
</svg>
