<?xml version="1.0" encoding="utf-8"?>
<!-- Generator: Adobe Illustrator 22.1.0, SVG Export Plug-In . SVG Version: 6.00 Build 0)  -->
<svg version="1.1" id="Layer_3_copy" xmlns="http://www.w3.org/2000/svg" xmlns:xlink="http://www.w3.org/1999/xlink" x="0px"
	 y="0px" viewBox="0 0 178 178" enable-background="new 0 0 178 178" xml:space="preserve">
<g>
	<path fill="#939699" d="M33.565,165.372v1.948H31v9.521h-2.186v-9.521H26.25v-1.948H33.565z M35.632,176.841v-11.469h2.186v4.572
		h3.101v-4.572h2.186v11.469h-2.186v-4.949h-3.101v4.949H35.632z M45.848,176.841v-11.469h6.003v1.948h-3.816v2.644h2.902v1.928
		h-2.902v3.021h3.975v1.948L45.848,176.841L45.848,176.841z"/>
	<path fill="#FF0117" d="M56.422,173.442c0,1.272,0.557,1.63,1.431,1.63c0.875,0,1.431-0.358,1.431-1.63v-0.755h2.186v0.477
		c0,2.822-1.491,3.836-3.618,3.836c-2.127,0-3.618-1.014-3.618-3.836v-4.095c0-2.822,1.491-3.836,3.618-3.836
		c2.127,0,3.618,1.014,3.618,3.836v0.04h-2.186v-0.318c0-1.272-0.557-1.63-1.431-1.63c-0.875,0-1.431,0.358-1.431,1.63V173.442z
		 M63.697,169.069c0-2.822,1.491-3.836,3.618-3.836s3.618,1.014,3.618,3.836v4.095c0,2.822-1.491,3.836-3.618,3.836
		s-3.618-1.014-3.618-3.836V169.069z M65.884,173.442c0,1.272,0.557,1.63,1.431,1.63c0.875,0,1.431-0.358,1.431-1.63v-4.671
		c0-1.272-0.557-1.63-1.431-1.63c-0.875,0-1.431,0.358-1.431,1.63V173.442z M73.158,169.069c0-2.822,1.491-3.836,3.618-3.836
		s3.618,1.014,3.618,3.836v4.095c0,2.822-1.491,3.836-3.618,3.836s-3.618-1.014-3.618-3.836V169.069z M75.365,173.442
		c0,1.272,0.557,1.63,1.431,1.63c0.875,0,1.431-0.358,1.431-1.63v-4.671c0-1.272-0.557-1.63-1.431-1.63
		c-0.875,0-1.431,0.358-1.431,1.63V173.442z M82.938,176.841v-11.469h3.16c2.703,0,4.015,1.272,4.015,3.439
		s-1.312,3.439-4.015,3.439h-0.974v4.611L82.938,176.841L82.938,176.841z M85.144,170.441h1.173c1.073,0,1.63-0.537,1.63-1.63
		c0-1.073-0.537-1.61-1.63-1.61h-1.173V170.441z M92.28,176.841v-11.469h6.003v1.948h-3.816v2.644h2.922v1.928h-2.902v3.021h3.975
		v1.948L92.28,176.841L92.28,176.841z M106.014,176.841l-1.908-4.671h-1.053v4.671h-2.186v-11.469h3.18
		c2.644,0,3.896,1.272,3.896,3.439c0,1.431-0.497,2.465-1.729,2.922l2.167,5.108H106.014z M103.053,170.361h1.133
		c0.974,0,1.55-0.477,1.55-1.59c0-1.113-0.596-1.59-1.55-1.59h-1.133V170.361z"/>
	<path fill="#96999C" d="M112.355,165.889v7.652c0,1.053,0.457,1.59,1.471,1.59s1.491-0.557,1.491-1.59v-7.652h2.087v7.672
		c0,2.405-1.431,3.419-3.578,3.419s-3.558-1.014-3.558-3.419v-7.672H112.355z M120.286,176.841v-10.952h2.286l2.902,6.5h0.04v-6.5
		h1.908v10.952h-2.008l-3.2-7.076h-0.02v7.076H120.286z M130.442,176.841v-10.952h2.087v10.952H130.442z M135.133,169.407
		c0-2.703,1.431-3.677,3.459-3.677c2.027,0,3.459,0.974,3.459,3.677v3.916c0,2.703-1.431,3.677-3.459,3.677
		c-2.027,0-3.459-0.974-3.459-3.677V169.407z M137.22,173.581c0,1.212,0.537,1.55,1.371,1.55c0.835,0,1.371-0.338,1.371-1.55v-4.452
		c0-1.212-0.537-1.55-1.371-1.55c-0.835,0-1.371,0.338-1.371,1.55V173.581z M144.614,176.841v-10.952h2.286l2.922,6.5h0.02v-6.5
		h1.908v10.952h-2.008l-3.2-7.076h-0.02v7.076H144.614z"/>
</g>
<g>
	<polygon fill="#FF0136" points="88.988,62.748 109.487,42.489 68.493,1.993 68.493,42.508 	"/>
	<polygon fill="#FFC602" points="109.492,82.998 129.996,103.248 150.5,83.003 109.487,42.489 109.507,82.984 	"/>
	<polygon fill="#FFFFFF" points="88.988,62.748 68.493,42.508 47.997,62.756 68.493,83.003 68.493,83.003 	"/>
	<polygon fill="#007C00" points="88.99,103.251 109.487,123.498 129.996,103.248 109.492,82.998 	"/>
	<polygon fill="#FF0136" points="129.996,103.248 150.5,123.498 150.5,83.003 	"/>
	<polygon fill="#01A0F0" points="68.493,42.508 68.493,1.993 27.5,42.508 47.997,62.756 	"/>
	<polygon fill="#000032" points="109.487,123.498 109.487,163.993 150.5,123.498 129.996,103.248 	"/>
	<polygon fill="#007C00" points="27.5,42.508 27.5,83.003 47.997,62.756 	"/>
	<polygon fill="#FFFFFF" points="68.493,123.498 88.99,103.251 68.493,83.003 	"/>
	<polygon fill="#FF0136" points="109.492,82.998 109.507,82.984 109.487,42.489 109.487,42.489 88.988,62.748 	"/>
	<polygon fill="#FFC602" points="88.988,62.748 68.493,83.003 68.493,83.003 88.99,103.251 109.492,82.998 	"/>
	<polygon fill="#FFC602" points="47.997,62.756 27.5,83.003 68.487,123.492 68.493,83.003 	"/>
	<polygon fill="#01A0F0" points="109.487,123.498 88.99,103.251 68.493,123.498 109.487,163.993 	"/>
</g>
</svg>
